<?xml version="1.0" encoding="UTF-8"?>
<svg id="Layer_2" data-name="Layer 2" xmlns="http://www.w3.org/2000/svg" viewBox="0 0 373.88 67.48">
  <defs>
    <style>
      .cls-1 {
        fill: #364350;
        stroke-width: 0px;
      }
    </style>
  </defs>
  <g id="Layer_1-2" data-name="Layer 1">
    <g>
      <path class="cls-1" d="M43.3,9.49h8.59v48.5h-8.59V25.15l-12.06,18.08-5.34-.07-5.27.07-12.13-18.08v32.84H0V9.49h8.52l17.39,25.77,17.39-25.77Z"/>
      <path class="cls-1" d="M87.37,9.49l18.01,48.5h-9.84l-3.95-11.22h-19.68l-3.95,11.22h-9.84l18.08-48.5h11.16ZM88.75,38.8l-7-19.68-7,19.68h14Z"/>
      <path class="cls-1" d="M135.31,9.49c18.92,0,20.16,26.74,3.74,30.21l11.71,18.29h-10.53l-11.5-17.88h-8.38v17.88h-8.73V9.49h23.7ZM120.35,32.49h14.97c9.7,0,9.7-15.04,0-15.04h-14.97v15.04Z"/>
      <g>
        <path class="cls-1" d="M286.7,17.53c-9.63,0-15.52,7.28-15.52,16.35s5.89,16.35,15.52,16.35,15.52-7.34,15.52-16.35-5.89-16.35-15.52-16.35Z"/>
        <path class="cls-1" d="M370.72,0h-202.46c-1.74,0-3.16,1.41-3.16,3.16v61.16c0,1.74,1.41,3.16,3.16,3.16h202.46c1.74,0,3.16-1.41,3.16-3.16V3.16c0-1.74-1.41-3.16-3.16-3.16ZM195.18,58.2c-7.55,0-15.66-2.91-20.92-9.42l5.54-5.2c3.53,4.3,9.91,6.24,15.31,6.24s9.98-1.94,9.98-5.4c0-10.88-27.85-5.13-27.85-22.31,0-9.08,8.45-13.51,17.18-13.51,6.03,0,12.26,2.08,15.94,6.24l-6.03,4.92c-2.01-2.01-6.1-3.26-9.91-3.26-4.43,0-8.59,1.66-8.59,5.68,0,8.8,27.99,5.54,27.99,22.24,0,8.8-8.8,13.79-18.64,13.79ZM260.58,17.46h-17.18v40.53h-8.73V17.46h-17.11v-7.97h43.03v7.97ZM286.7,58.61c-14.55,0-23.49-11.09-23.49-24.74s8.94-24.8,23.49-24.8,23.49,11.09,23.49,24.8-8.94,24.74-23.49,24.74ZM361.32,57.99h-8.52l-25.98-32.5v32.5h-8.52V9.49h8.52l25.98,34.64V9.49h8.52v48.5Z"/>
      </g>
    </g>
  </g>
</svg>