<?xml version="1.0" encoding="UTF-8"?>
<svg id="Layer_2" data-name="Layer 2" xmlns="http://www.w3.org/2000/svg" viewBox="0 0 373.94 87.02">
  <defs>
    <style>
      .cls-1 {
        fill: #000;
        stroke-width: 0px;
      }
    </style>
  </defs>
  <g id="Layer_1-2" data-name="Layer 1">
    <g>
      <path class="cls-1" d="M43.3,9.49h8.59v48.5h-8.59V25.15l-12.06,18.08-5.34-.07-5.27.07-12.13-18.08v32.84H0V9.49h8.52l17.39,25.77,17.39-25.77Z"/>
      <path class="cls-1" d="M87.37,9.49l18.01,48.5h-9.84l-3.95-11.22h-19.68l-3.95,11.22h-9.84l18.08-48.5h11.16ZM88.75,38.8l-7-19.68-7,19.68h14Z"/>
      <path class="cls-1" d="M135.31,9.49c18.92,0,20.16,26.74,3.74,30.21l11.71,18.29h-10.53l-11.5-17.88h-8.38v17.88h-8.73V9.49h23.7ZM120.35,32.49h14.97c9.7,0,9.7-15.04,0-15.04h-14.97v15.04Z"/>
      <g>
        <path class="cls-1" d="M286.7,17.53c-9.63,0-15.52,7.28-15.52,16.35s5.89,16.35,15.52,16.35,15.52-7.34,15.52-16.35-5.89-16.35-15.52-16.35Z"/>
        <path class="cls-1" d="M370.72,0h-202.46c-1.74,0-3.16,1.41-3.16,3.16v61.16c0,1.74,1.41,3.16,3.16,3.16h202.46c1.74,0,3.16-1.41,3.16-3.16V3.16c0-1.74-1.41-3.16-3.16-3.16ZM195.18,58.2c-7.55,0-15.66-2.91-20.92-9.42l5.54-5.2c3.53,4.3,9.91,6.24,15.31,6.24s9.98-1.94,9.98-5.4c0-10.88-27.85-5.13-27.85-22.31,0-9.08,8.45-13.51,17.18-13.51,6.03,0,12.26,2.08,15.94,6.24l-6.03,4.92c-2.01-2.01-6.1-3.26-9.91-3.26-4.43,0-8.59,1.66-8.59,5.68,0,8.8,27.99,5.54,27.99,22.24,0,8.8-8.8,13.79-18.64,13.79ZM260.58,17.46h-17.18v40.53h-8.73V17.46h-17.11v-7.97h43.03v7.97ZM286.7,58.61c-14.55,0-23.49-11.09-23.49-24.74s8.94-24.8,23.49-24.8,23.49,11.09,23.49,24.8-8.94,24.74-23.49,24.74ZM361.32,57.99h-8.52l-25.98-32.5v32.5h-8.52V9.49h8.52l25.98,34.64V9.49h8.52v48.5Z"/>
      </g>
      <g>
        <path class="cls-1" d="M5.7,84.6c-.13.27-.32.5-.55.7-.23.19-.51.34-.84.45-.33.11-.68.16-1.07.16-.64,0-1.22-.11-1.74-.32-.52-.21-1.02-.54-1.5-.97l.39-.45c.22.21.44.39.66.53.22.15.44.27.67.37.23.1.47.17.72.22.25.05.53.07.83.07s.57-.04.83-.12c.25-.08.47-.19.64-.33.18-.14.31-.31.41-.51.1-.2.15-.41.15-.64v-.02c0-.21-.03-.41-.1-.57-.07-.17-.18-.32-.36-.46-.17-.14-.4-.26-.7-.37-.29-.11-.67-.21-1.13-.3-.48-.1-.9-.22-1.24-.35-.34-.13-.63-.29-.84-.47-.22-.18-.38-.39-.48-.63s-.15-.51-.15-.82v-.02c0-.3.06-.58.2-.83s.31-.48.54-.67c.23-.19.5-.34.82-.45.31-.11.66-.16,1.03-.16.58,0,1.09.08,1.51.24.43.16.84.41,1.25.74l-.38.47c-.38-.33-.77-.56-1.15-.7-.39-.14-.8-.21-1.25-.21-.3,0-.57.04-.81.12-.24.08-.45.19-.62.33-.17.14-.3.3-.4.48s-.14.38-.14.59v.02c0,.21.03.41.1.58.06.17.18.33.36.47.17.14.41.27.72.39s.7.22,1.17.32c.93.19,1.61.46,2.02.81s.62.82.62,1.41v.02c0,.32-.07.62-.2.89Z"/>
        <path class="cls-1" d="M12.82,78.29v7.5h-.6v-7.5h-2.8v-.54h6.2v.54h-2.8Z"/>
        <path class="cls-1" d="M25.53,85.79l-2.56-3.33h-2.63v3.33h-.6v-8.04h3.38c.44,0,.83.05,1.18.17.35.11.65.27.9.47.25.2.44.44.58.72s.21.59.21.93v.02c0,.34-.06.64-.18.9-.12.26-.28.49-.49.68-.21.19-.46.35-.75.47-.29.12-.6.2-.94.25l2.65,3.43h-.76ZM25.39,80.05c0-.55-.2-.98-.6-1.29-.4-.32-.97-.47-1.71-.47h-2.75v3.63h2.71c.34,0,.65-.04.94-.13.29-.08.53-.21.74-.36.21-.16.37-.35.49-.58.12-.23.18-.49.18-.78v-.02Z"/>
        <path class="cls-1" d="M37.78,83.35c-.2.5-.47.94-.82,1.33s-.78.69-1.28.91-1.05.34-1.66.34-1.17-.11-1.66-.34c-.49-.23-.92-.53-1.27-.91s-.62-.82-.82-1.32c-.19-.5-.29-1.02-.29-1.57v-.02c0-.55.1-1.08.29-1.58.2-.5.47-.94.82-1.33.35-.38.78-.69,1.27-.91.5-.23,1.05-.34,1.67-.34s1.16.11,1.65.34c.5.23.92.53,1.28.91.35.38.62.82.82,1.32s.29,1.02.29,1.57c0,0,0,.01,0,.02,0,.55-.1,1.08-.29,1.58ZM37.45,81.77c0-.5-.09-.97-.26-1.41-.17-.44-.41-.82-.71-1.15-.3-.32-.66-.58-1.09-.78-.42-.19-.88-.29-1.38-.29s-.96.09-1.37.28c-.42.19-.78.44-1.08.77-.3.33-.54.71-.71,1.14-.17.44-.25.9-.25,1.4v.02c0,.5.09.97.26,1.41.17.44.41.82.71,1.15.3.33.66.58,1.09.78.42.19.88.29,1.38.29s.96-.09,1.37-.28c.42-.19.78-.44,1.08-.77.3-.32.54-.71.71-1.14.17-.44.25-.9.25-1.4v-.02Z"/>
        <path class="cls-1" d="M48.64,85.79l-5.66-7.15v7.15h-.57v-8.04h.56l5.55,7v-7h.57v8.04h-.45Z"/>
        <path class="cls-1" d="M59.26,85.57c-.54.24-1.14.36-1.8.36s-1.2-.11-1.71-.33-.92-.51-1.27-.89c-.34-.37-.61-.81-.79-1.32-.18-.5-.28-1.04-.28-1.6v-.02c0-.54.09-1.07.28-1.57.19-.5.46-.94.8-1.33s.77-.69,1.26-.92,1.03-.34,1.63-.34c.33,0,.63.02.9.07.27.05.52.11.76.21.23.09.46.2.67.33.21.13.42.28.61.45l-.39.45c-.31-.28-.67-.51-1.07-.69s-.91-.28-1.51-.28c-.49,0-.94.1-1.34.29-.41.19-.76.45-1.05.78-.3.33-.52.71-.68,1.15-.16.44-.24.9-.24,1.38v.02c0,.52.08,1,.24,1.45.16.44.38.83.68,1.15.3.32.66.57,1.09.76s.91.28,1.44.28c.25,0,.5-.03.75-.07s.48-.12.7-.2c.22-.08.42-.18.61-.29s.36-.23.51-.35v-2.3h-2.69v-.54h3.26v3.09c-.37.32-.82.6-1.36.84Z"/>
        <path class="cls-1" d="M71.43,78.29v3.32h4.55v.54h-4.55v3.64h-.6v-8.04h5.66v.54h-5.07Z"/>
        <path class="cls-1" d="M87.87,83.35c-.2.5-.47.94-.82,1.33s-.78.69-1.28.91-1.05.34-1.66.34-1.17-.11-1.66-.34c-.49-.23-.92-.53-1.27-.91s-.62-.82-.82-1.32c-.19-.5-.29-1.02-.29-1.57v-.02c0-.55.1-1.08.29-1.58.2-.5.47-.94.82-1.33.35-.38.78-.69,1.27-.91.5-.23,1.05-.34,1.67-.34s1.16.11,1.65.34c.5.23.92.53,1.28.91.35.38.62.82.82,1.32s.29,1.02.29,1.57c0,0,0,.01,0,.02,0,.55-.1,1.08-.29,1.58ZM87.54,81.77c0-.5-.09-.97-.26-1.41-.17-.44-.41-.82-.71-1.15-.3-.32-.66-.58-1.09-.78-.42-.19-.88-.29-1.38-.29s-.96.09-1.37.28c-.42.19-.78.44-1.08.77-.3.33-.54.71-.71,1.14-.17.44-.25.9-.25,1.4v.02c0,.5.09.97.26,1.41.17.44.41.82.71,1.15.3.33.66.58,1.09.78.42.19.88.29,1.38.29s.96-.09,1.37-.28c.42-.19.78-.44,1.08-.77.3-.32.54-.71.71-1.14.17-.44.25-.9.25-1.4v-.02Z"/>
        <path class="cls-1" d="M98.72,83.9c-.16.44-.39.81-.68,1.11-.29.3-.64.53-1.04.68-.4.15-.85.23-1.34.23s-.92-.07-1.33-.22c-.4-.15-.75-.37-1.05-.67s-.52-.66-.68-1.09c-.16-.43-.24-.93-.24-1.49v-4.7h.6v4.64c0,.96.24,1.7.72,2.21s1.15.78,2,.78c.41,0,.77-.06,1.1-.18s.61-.31.84-.55c.23-.24.41-.55.54-.92.13-.37.19-.79.19-1.28v-4.7h.6v4.63c0,.57-.08,1.08-.24,1.52Z"/>
        <path class="cls-1" d="M109.76,85.79l-5.66-7.15v7.15h-.57v-8.04h.56l5.55,7v-7h.57v8.04h-.45Z"/>
        <path class="cls-1" d="M121.54,83.35c-.21.49-.5.92-.88,1.28-.38.36-.83.64-1.36.85s-1.1.31-1.73.31h-2.68v-8.04h2.68c.63,0,1.2.1,1.73.3.52.2.98.49,1.36.85.38.36.67.78.88,1.27s.31,1.01.31,1.58v.02c0,.57-.1,1.1-.31,1.59ZM121.23,81.77c0-.48-.09-.93-.26-1.35-.17-.42-.42-.79-.73-1.11-.31-.32-.7-.56-1.15-.75-.45-.18-.96-.28-1.52-.28h-2.08v6.96h2.08c.56,0,1.06-.09,1.52-.27.45-.18.83-.43,1.15-.74.31-.31.56-.68.73-1.1.17-.42.26-.87.26-1.35v-.02Z"/>
        <path class="cls-1" d="M132.38,85.79l-1.02-2.25h-4.74l-1.02,2.25h-.62l3.75-8.1h.57l3.75,8.1h-.65ZM129,78.34l-2.13,4.65h4.24l-2.11-4.65Z"/>
        <path class="cls-1" d="M138.83,78.29v7.5h-.6v-7.5h-2.8v-.54h6.2v.54h-2.8Z"/>
        <path class="cls-1" d="M145.83,85.79v-8.04h.6v8.04h-.6Z"/>
        <path class="cls-1" d="M158.63,83.35c-.2.5-.47.94-.82,1.33-.35.38-.78.69-1.28.91-.5.23-1.05.34-1.66.34s-1.17-.11-1.66-.34-.92-.53-1.27-.91-.62-.82-.82-1.32c-.19-.5-.29-1.02-.29-1.57v-.02c0-.55.1-1.08.29-1.58s.47-.94.82-1.33.78-.69,1.28-.91c.5-.23,1.05-.34,1.67-.34s1.16.11,1.66.34c.5.23.92.53,1.27.91.35.38.62.82.82,1.32.19.5.29,1.02.29,1.57,0,0,0,.01,0,.02,0,.55-.1,1.08-.29,1.58ZM158.3,81.77c0-.5-.09-.97-.26-1.41-.17-.44-.41-.82-.71-1.15-.3-.32-.66-.58-1.09-.78-.42-.19-.88-.29-1.38-.29s-.96.09-1.37.28-.78.44-1.08.77c-.3.33-.54.71-.71,1.14-.17.44-.25.9-.25,1.4v.02c0,.5.09.97.26,1.41.17.44.41.82.71,1.15.3.33.66.58,1.09.78.42.19.88.29,1.38.29s.96-.09,1.37-.28c.42-.19.78-.44,1.08-.77.3-.32.54-.71.71-1.14s.25-.9.25-1.4v-.02Z"/>
        <path class="cls-1" d="M169.49,85.79l-5.66-7.15v7.15h-.57v-8.04h.56l5.55,7v-7h.57v8.04h-.45Z"/>
        <path class="cls-1" d="M179.82,84.6c-.13.27-.32.5-.55.7-.23.19-.51.34-.84.45-.33.11-.68.16-1.07.16-.64,0-1.22-.11-1.74-.32s-1.02-.54-1.5-.97l.39-.45c.22.21.44.39.66.53.22.15.44.27.67.37.23.1.47.17.72.22.25.05.53.07.83.07s.57-.04.83-.12c.25-.08.47-.19.64-.33s.31-.31.41-.51c.1-.2.15-.41.15-.64v-.02c0-.21-.03-.41-.1-.57-.06-.17-.18-.32-.36-.46-.17-.14-.4-.26-.7-.37-.29-.11-.67-.21-1.13-.3-.48-.1-.9-.22-1.24-.35-.34-.13-.63-.29-.84-.47-.22-.18-.38-.39-.48-.63s-.15-.51-.15-.82v-.02c0-.3.07-.58.2-.83.13-.26.31-.48.54-.67.23-.19.5-.34.82-.45.31-.11.66-.16,1.03-.16.58,0,1.09.08,1.51.24.43.16.84.41,1.25.74l-.38.47c-.38-.33-.77-.56-1.15-.7-.39-.14-.8-.21-1.25-.21-.3,0-.57.04-.81.12-.24.08-.45.19-.62.33-.17.14-.3.3-.4.48-.09.18-.14.38-.14.59v.02c0,.21.03.41.1.58.07.17.18.33.36.47.17.14.41.27.72.39.31.11.7.22,1.17.32.93.19,1.61.46,2.02.81s.62.82.62,1.41v.02c0,.32-.07.62-.2.89Z"/>
        <path class="cls-1" d="M184.21,86.33c.1-.14.14-.32.13-.54h-.31v-.98h.76v.85c0,.36-.07.64-.22.85s-.39.38-.74.51l-.14-.29c.24-.13.42-.26.52-.4Z"/>
        <path class="cls-1" d="M201.68,85.79l-1.02-2.25h-4.74l-1.02,2.25h-.62l3.75-8.1h.57l3.75,8.1h-.65ZM198.29,78.34l-2.13,4.65h4.24l-2.11-4.65Z"/>
        <path class="cls-1" d="M206.93,78.29v3.32h4.55v.54h-4.55v3.64h-.6v-8.04h5.66v.54h-5.07Z"/>
        <path class="cls-1" d="M216.77,78.29v3.32h4.55v.54h-4.55v3.64h-.6v-8.04h5.66v.54h-5.07Z"/>
        <path class="cls-1" d="M233.21,83.35c-.2.5-.47.94-.82,1.33-.35.38-.78.69-1.28.91-.5.23-1.05.34-1.66.34s-1.17-.11-1.66-.34-.92-.53-1.27-.91-.62-.82-.82-1.32c-.19-.5-.29-1.02-.29-1.57v-.02c0-.55.1-1.08.29-1.58s.47-.94.82-1.33.78-.69,1.28-.91c.5-.23,1.05-.34,1.67-.34s1.16.11,1.66.34c.5.23.92.53,1.27.91.35.38.62.82.82,1.32.19.5.29,1.02.29,1.57,0,0,0,.01,0,.02,0,.55-.1,1.08-.29,1.58ZM232.89,81.77c0-.5-.09-.97-.26-1.41-.17-.44-.41-.82-.71-1.15-.3-.32-.66-.58-1.09-.78-.42-.19-.88-.29-1.38-.29s-.96.09-1.37.28-.78.44-1.08.77c-.3.33-.54.71-.71,1.14-.17.44-.25.9-.25,1.4v.02c0,.5.09.97.26,1.41.17.44.41.82.71,1.15.3.33.66.58,1.09.78.42.19.88.29,1.38.29s.96-.09,1.37-.28c.42-.19.78-.44,1.08-.77.3-.32.54-.71.71-1.14s.25-.9.25-1.4v-.02Z"/>
        <path class="cls-1" d="M243.63,85.79l-2.56-3.33h-2.63v3.33h-.6v-8.04h3.38c.44,0,.83.05,1.18.17.35.11.65.27.9.47.25.2.44.44.58.72s.21.59.21.93v.02c0,.34-.06.64-.18.9-.12.26-.28.49-.49.68-.21.19-.46.35-.75.47-.29.12-.6.2-.94.25l2.65,3.43h-.76ZM243.49,80.05c0-.55-.2-.98-.6-1.29-.4-.32-.97-.47-1.71-.47h-2.75v3.63h2.71c.34,0,.65-.04.94-.13.29-.08.53-.21.74-.36.21-.16.37-.35.49-.58.12-.23.18-.49.18-.78v-.02Z"/>
        <path class="cls-1" d="M255.08,83.35c-.21.49-.5.92-.88,1.28-.38.36-.83.64-1.36.85s-1.1.31-1.73.31h-2.68v-8.04h2.68c.63,0,1.2.1,1.73.3.52.2.98.49,1.36.85.38.36.67.78.88,1.27s.31,1.01.31,1.58v.02c0,.57-.1,1.1-.31,1.59ZM254.77,81.77c0-.48-.09-.93-.26-1.35-.17-.42-.42-.79-.73-1.11-.31-.32-.7-.56-1.15-.75-.45-.18-.96-.28-1.52-.28h-2.08v6.96h2.08c.56,0,1.06-.09,1.52-.27.45-.18.83-.43,1.15-.74.31-.31.56-.68.73-1.1.17-.42.26-.87.26-1.35v-.02Z"/>
        <path class="cls-1" d="M265.93,85.79l-1.02-2.25h-4.74l-1.02,2.25h-.62l3.75-8.1h.57l3.75,8.1h-.65ZM262.54,78.34l-2.13,4.65h4.24l-2.11-4.65Z"/>
        <path class="cls-1" d="M276.74,84.51c-.14.27-.33.5-.58.69-.25.19-.55.33-.91.44s-.75.16-1.18.16h-3.49v-8.04h3.31c.39,0,.74.05,1.07.14.32.09.59.22.82.4.22.17.4.38.53.63.13.24.19.52.19.82v.02c0,.28-.04.52-.12.73-.08.21-.19.39-.32.54-.13.15-.28.28-.44.39s-.33.19-.49.26c.24.06.47.14.69.25.22.1.41.23.58.39.16.16.3.34.4.55.1.21.15.45.15.73v.02c0,.34-.07.64-.21.91ZM275.9,79.78c0-.45-.17-.81-.52-1.08s-.84-.41-1.49-.41h-2.71v3.18h2.65c.3,0,.57-.04.83-.11.25-.07.47-.18.65-.32.18-.14.33-.31.43-.52.1-.21.16-.45.16-.72v-.02ZM276.35,83.58c0-.5-.21-.89-.63-1.16s-1.02-.41-1.82-.41h-2.72v3.24h2.92c.69,0,1.24-.15,1.64-.44.41-.3.61-.7.61-1.2v-.02Z"/>
        <path class="cls-1" d="M281.17,85.79v-8.04h.6v7.5h4.72v.54h-5.32Z"/>
        <path class="cls-1" d="M290.58,85.79v-8.04h5.72v.54h-5.12v3.18h4.61v.54h-4.61v3.24h5.18v.54h-5.78Z"/>
        <path class="cls-1" d="M306.92,78.29v3.32h4.55v.54h-4.55v3.64h-.6v-8.04h5.66v.54h-5.07Z"/>
        <path class="cls-1" d="M322.38,83.9c-.16.44-.39.81-.68,1.11-.29.3-.64.53-1.04.68s-.85.23-1.34.23-.92-.07-1.33-.22c-.4-.15-.75-.37-1.05-.67-.29-.3-.52-.66-.68-1.09-.16-.43-.24-.93-.24-1.49v-4.7h.6v4.64c0,.96.24,1.7.72,2.21.48.52,1.15.78,2,.78.41,0,.77-.06,1.1-.18.33-.12.61-.31.84-.55s.41-.55.54-.92c.13-.37.19-.79.19-1.28v-4.7h.6v4.63c0,.57-.08,1.08-.24,1.52Z"/>
        <path class="cls-1" d="M330.01,78.29v7.5h-.6v-7.5h-2.8v-.54h6.2v.54h-2.8Z"/>
        <path class="cls-1" d="M343.15,83.9c-.16.44-.39.81-.68,1.11-.29.3-.64.53-1.04.68s-.85.23-1.34.23-.92-.07-1.33-.22c-.4-.15-.75-.37-1.05-.67-.29-.3-.52-.66-.68-1.09-.16-.43-.24-.93-.24-1.49v-4.7h.6v4.64c0,.96.24,1.7.72,2.21.48.52,1.15.78,2,.78.41,0,.77-.06,1.1-.18.33-.12.61-.31.84-.55s.41-.55.54-.92c.13-.37.19-.79.19-1.28v-4.7h.6v4.63c0,.57-.08,1.08-.24,1.52Z"/>
        <path class="cls-1" d="M353.75,85.79l-2.56-3.33h-2.63v3.33h-.6v-8.04h3.38c.44,0,.83.05,1.18.17.35.11.65.27.9.47.25.2.44.44.58.72s.21.59.21.93v.02c0,.34-.06.64-.18.9-.12.26-.28.49-.49.68-.21.19-.46.35-.75.47-.29.12-.6.2-.94.25l2.65,3.43h-.76ZM353.61,80.05c0-.55-.2-.98-.6-1.29-.4-.32-.97-.47-1.71-.47h-2.75v3.63h2.71c.34,0,.65-.04.94-.13.29-.08.53-.21.74-.36.21-.16.37-.35.49-.58.12-.23.18-.49.18-.78v-.02Z"/>
        <path class="cls-1" d="M358.56,85.79v-8.04h5.72v.54h-5.12v3.18h4.61v.54h-4.61v3.24h5.18v.54h-5.78Z"/>
        <path class="cls-1" d="M373.74,84.6c-.13.27-.32.5-.55.7-.23.19-.51.34-.84.45-.33.11-.68.16-1.07.16-.64,0-1.22-.11-1.74-.32s-1.02-.54-1.5-.97l.39-.45c.22.21.44.39.66.53.22.15.44.27.67.37.23.1.47.17.72.22.25.05.53.07.83.07s.57-.04.83-.12c.25-.08.47-.19.64-.33s.31-.31.41-.51c.1-.2.15-.41.15-.64v-.02c0-.21-.03-.41-.1-.57-.06-.17-.18-.32-.36-.46-.17-.14-.4-.26-.7-.37-.29-.11-.67-.21-1.13-.3-.48-.1-.9-.22-1.24-.35-.34-.13-.63-.29-.84-.47-.22-.18-.38-.39-.48-.63s-.15-.51-.15-.82v-.02c0-.3.07-.58.2-.83.13-.26.31-.48.54-.67.23-.19.5-.34.82-.45.31-.11.66-.16,1.03-.16.58,0,1.09.08,1.51.24.43.16.84.41,1.25.74l-.38.47c-.38-.33-.77-.56-1.15-.7-.39-.14-.8-.21-1.25-.21-.3,0-.57.04-.81.12-.24.08-.45.19-.62.33-.17.14-.3.3-.4.48-.09.18-.14.38-.14.59v.02c0,.21.03.41.1.58.07.17.18.33.36.47.17.14.41.27.72.39.31.11.7.22,1.17.32.93.19,1.61.46,2.02.81s.62.82.62,1.41v.02c0,.32-.07.62-.2.89Z"/>
      </g>
    </g>
  </g>
</svg>